<svg width="290" height="115" viewBox="0 0 290 115" fill="none" xmlns="http://www.w3.org/2000/svg">
<g clip-path="url(#clip0_53_3)">
<path d="M79.1143 90.4595H26.5063V24.4115H79.1143C92.9383 24.4115 97.7383 28.2515 97.7383 41.3075V45.4355C97.7383 51.8675 94.7623 55.3235 89.0023 56.2835C94.7623 57.0515 99.2743 60.6035 99.2743 68.5715V72.8915C99.2743 86.5235 93.3223 90.4595 79.1143 90.4595ZM86.4103 71.3555V68.9555C86.4103 64.0595 84.9703 62.3315 79.5943 62.3315H39.4663V77.4995H79.1143C84.7783 77.4995 86.4103 75.7715 86.4103 71.3555ZM84.8743 45.6275V43.1315C84.8743 38.9075 83.3383 37.4675 79.1143 37.4675H39.4663V51.7715H79.2103C83.3383 51.7715 84.8743 50.1395 84.8743 45.6275ZM184.355 90.4595H166.115L143.267 68.8595H122.435V90.4595H109.379V24.4115H163.331C177.347 24.4115 182.243 29.8835 182.243 44.8595V48.8915C182.243 65.0195 176.195 68.6675 159.875 68.6675L184.355 90.4595ZM169.379 50.2355V47.0675C169.379 40.6355 168.611 37.5635 162.947 37.5635H122.435V58.0115H162.947C167.555 58.0115 169.379 55.9955 169.379 50.2355ZM250.144 90.4595H212.704C196.96 90.4595 192.16 85.4675 192.16 69.0515V45.8195C192.16 29.3075 196.96 24.4115 212.704 24.4115H249.76C259.552 24.4115 264.064 30.4595 265.6 34.1075L257.344 42.5555C256.192 39.9635 253.888 37.4675 248.896 37.4675H212.8C207.04 37.4675 205.024 39.5795 205.024 45.8195V69.1475C205.024 74.7155 206.176 77.4995 212.8 77.4995H249.376C254.464 77.4995 256.576 74.9075 257.728 72.4115L265.984 80.7635C264.544 84.4115 259.936 90.4595 250.144 90.4595Z" fill="#0070d5"/>
</g>
<defs>
<clipPath id="clip0_53_3">
<rect width="290" height="115" fill="white"/>
</clipPath>
</defs>
</svg>
