<svg width="1032" height="49" viewBox="0 0 1032 49" fill="none" xmlns="http://www.w3.org/2000/svg">
<path d="M0.920455 48V1.45454H19.5568C22.9811 1.45454 25.8371 1.96212 28.125 2.97727C30.4129 3.99242 32.1326 5.40151 33.2841 7.20454C34.4356 8.99242 35.0114 11.053 35.0114 13.3864C35.0114 15.2045 34.6477 16.803 33.9205 18.1818C33.1932 19.5455 32.1932 20.6667 30.9205 21.5455C29.6629 22.4091 28.2235 23.0227 26.6023 23.3864V23.8409C28.375 23.9167 30.0341 24.4167 31.5795 25.3409C33.1402 26.2652 34.4053 27.5606 35.375 29.2273C36.3447 30.8788 36.8295 32.8485 36.8295 35.1364C36.8295 37.6061 36.2159 39.8106 34.9886 41.75C33.7765 43.6742 31.9811 45.197 29.6023 46.3182C27.2235 47.4394 24.2917 48 20.8068 48H0.920455ZM10.7614 39.9545H18.7841C21.5265 39.9545 23.5265 39.4318 24.7841 38.3864C26.0417 37.3258 26.6705 35.9167 26.6705 34.1591C26.6705 32.8712 26.3598 31.7348 25.7386 30.75C25.1174 29.7652 24.2311 28.9924 23.0795 28.4318C21.9432 27.8712 20.5871 27.5909 19.0114 27.5909H10.7614V39.9545ZM10.7614 20.9318H18.0568C19.4053 20.9318 20.6023 20.697 21.6477 20.2273C22.7083 19.7424 23.5417 19.0606 24.1477 18.1818C24.7689 17.303 25.0795 16.25 25.0795 15.0227C25.0795 13.3409 24.4811 11.9848 23.2841 10.9545C22.1023 9.92424 20.4205 9.40909 18.2386 9.40909H10.7614V20.9318ZM51.2557 48H40.7102L56.7784 1.45454H69.4602L85.5057 48H74.9602L63.3011 12.0909H62.9375L51.2557 48ZM50.5966 29.7045H75.5057V37.3864H50.5966V29.7045ZM83.6477 9.56818V1.45454H121.875V9.56818H107.625V48H97.8977V9.56818H83.6477ZM126.398 9.56818V1.45454H164.625V9.56818H150.375V48H140.648V9.56818H126.398ZM170.92 48V1.45454H180.761V39.8864H200.716V48H170.92ZM207.233 48V1.45454H238.597V9.56818H217.074V20.6591H236.983V28.7727H217.074V39.8864H238.688V48H207.233ZM261.233 48V1.45454H279.597C283.112 1.45454 286.112 2.08333 288.597 3.34091C291.097 4.58333 292.998 6.34848 294.301 8.63636C295.619 10.9091 296.278 13.5833 296.278 16.6591C296.278 19.75 295.612 22.4091 294.278 24.6364C292.945 26.8485 291.013 28.5455 288.483 29.7273C285.968 30.9091 282.922 31.5 279.347 31.5H267.051V23.5909H277.756C279.634 23.5909 281.195 23.3333 282.438 22.8182C283.68 22.303 284.604 21.5303 285.21 20.5C285.831 19.4697 286.142 18.1894 286.142 16.6591C286.142 15.1136 285.831 13.8106 285.21 12.75C284.604 11.6894 283.672 10.8864 282.415 10.3409C281.172 9.7803 279.604 9.5 277.71 9.5H271.074V48H261.233ZM286.369 26.8182L297.938 48H287.074L275.756 26.8182H286.369ZM346.006 24.7273C346.006 29.803 345.044 34.1212 343.119 37.6818C341.21 41.2424 338.604 43.9621 335.301 45.8409C332.013 47.7045 328.316 48.6364 324.21 48.6364C320.074 48.6364 316.362 47.697 313.074 45.8182C309.786 43.9394 307.188 41.2197 305.278 37.6591C303.369 34.0985 302.415 29.7879 302.415 24.7273C302.415 19.6515 303.369 15.3333 305.278 11.7727C307.188 8.21212 309.786 5.5 313.074 3.63636C316.362 1.75757 320.074 0.81818 324.21 0.81818C328.316 0.81818 332.013 1.75757 335.301 3.63636C338.604 5.5 341.21 8.21212 343.119 11.7727C345.044 15.3333 346.006 19.6515 346.006 24.7273ZM336.028 24.7273C336.028 21.4394 335.536 18.6667 334.551 16.4091C333.581 14.1515 332.21 12.4394 330.438 11.2727C328.665 10.1061 326.589 9.52273 324.21 9.52273C321.831 9.52273 319.756 10.1061 317.983 11.2727C316.21 12.4394 314.831 14.1515 313.847 16.4091C312.877 18.6667 312.392 21.4394 312.392 24.7273C312.392 28.0152 312.877 30.7879 313.847 33.0455C314.831 35.303 316.21 37.0152 317.983 38.1818C319.756 39.3485 321.831 39.9318 324.21 39.9318C326.589 39.9318 328.665 39.3485 330.438 38.1818C332.21 37.0152 333.581 35.303 334.551 33.0455C335.536 30.7879 336.028 28.0152 336.028 24.7273ZM347.756 1.45454H358.778L369.392 21.5H369.847L380.46 1.45454H391.483L374.506 31.5455V48H364.733V31.5455L347.756 1.45454ZM400.131 48H389.585L405.653 1.45454H418.335L434.381 48H423.835L412.176 12.0909H411.812L400.131 48ZM399.472 29.7045H424.381V37.3864H399.472V29.7045ZM439.983 48V1.45454H449.824V39.8864H469.778V48H439.983ZM476.295 48V1.45454H507.659V9.56818H486.136V20.6591H506.045V28.7727H486.136V39.8864H507.75V48H476.295ZM571.364 17.75H561.409C561.227 16.4621 560.856 15.3182 560.295 14.3182C559.735 13.303 559.015 12.4394 558.136 11.7273C557.258 11.0151 556.242 10.4697 555.091 10.0909C553.955 9.71212 552.72 9.52273 551.386 9.52273C548.977 9.52273 546.879 10.1212 545.091 11.3182C543.303 12.5 541.917 14.2273 540.932 16.5C539.947 18.7576 539.455 21.5 539.455 24.7273C539.455 28.0455 539.947 30.8333 540.932 33.0909C541.932 35.3485 543.326 37.053 545.114 38.2045C546.902 39.3561 548.97 39.9318 551.318 39.9318C552.636 39.9318 553.856 39.7576 554.977 39.4091C556.114 39.0606 557.121 38.553 558 37.8864C558.879 37.2045 559.606 36.3788 560.182 35.4091C560.773 34.4394 561.182 33.3333 561.409 32.0909L571.364 32.1364C571.106 34.2727 570.462 36.3333 569.432 38.3182C568.417 40.2879 567.045 42.053 565.318 43.6136C563.606 45.1591 561.561 46.3864 559.182 47.2955C556.818 48.1894 554.144 48.6364 551.159 48.6364C547.008 48.6364 543.295 47.697 540.023 45.8182C536.765 43.9394 534.189 41.2197 532.295 37.6591C530.417 34.0985 529.477 29.7879 529.477 24.7273C529.477 19.6515 530.432 15.3333 532.341 11.7727C534.25 8.21212 536.841 5.5 540.114 3.63636C543.386 1.75757 547.068 0.81818 551.159 0.81818C553.856 0.81818 556.356 1.19697 558.659 1.95454C560.977 2.71212 563.03 3.81818 564.818 5.27272C566.606 6.71212 568.061 8.47727 569.182 10.5682C570.318 12.6591 571.045 15.053 571.364 17.75ZM578.42 48V1.45454H588.261V20.6591H608.239V1.45454H618.057V48H608.239V28.7727H588.261V48H578.42ZM634.193 48H623.648L639.716 1.45454H652.398L668.443 48H657.898L646.239 12.0909H645.875L634.193 48ZM633.534 29.7045H658.443V37.3864H633.534V29.7045ZM674.045 1.45454H686.182L699 32.7273H699.545L712.364 1.45454H724.5V48H714.955V17.7045H714.568L702.523 47.7727H696.023L683.977 17.5909H683.591V48H674.045V1.45454ZM732.608 48V1.45454H750.972C754.502 1.45454 757.509 2.12879 759.994 3.47727C762.479 4.81061 764.373 6.66667 765.676 9.04545C766.994 11.4091 767.653 14.1364 767.653 17.2273C767.653 20.3182 766.987 23.0455 765.653 25.4091C764.32 27.7727 762.388 29.6136 759.858 30.9318C757.343 32.25 754.297 32.9091 750.722 32.9091H739.017V25.0227H749.131C751.025 25.0227 752.585 24.697 753.812 24.0455C755.055 23.3788 755.979 22.4621 756.585 21.2955C757.206 20.1136 757.517 18.7576 757.517 17.2273C757.517 15.6818 757.206 14.3333 756.585 13.1818C755.979 12.0151 755.055 11.1136 753.812 10.4773C752.57 9.82576 750.994 9.5 749.085 9.5H742.449V48H732.608ZM783.886 1.45454V48H774.045V1.45454H783.886ZM834.756 24.7273C834.756 29.803 833.794 34.1212 831.869 37.6818C829.96 41.2424 827.354 43.9621 824.051 45.8409C820.763 47.7045 817.066 48.6364 812.96 48.6364C808.824 48.6364 805.112 47.697 801.824 45.8182C798.536 43.9394 795.938 41.2197 794.028 37.6591C792.119 34.0985 791.165 29.7879 791.165 24.7273C791.165 19.6515 792.119 15.3333 794.028 11.7727C795.938 8.21212 798.536 5.5 801.824 3.63636C805.112 1.75757 808.824 0.81818 812.96 0.81818C817.066 0.81818 820.763 1.75757 824.051 3.63636C827.354 5.5 829.96 8.21212 831.869 11.7727C833.794 15.3333 834.756 19.6515 834.756 24.7273ZM824.778 24.7273C824.778 21.4394 824.286 18.6667 823.301 16.4091C822.331 14.1515 820.96 12.4394 819.188 11.2727C817.415 10.1061 815.339 9.52273 812.96 9.52273C810.581 9.52273 808.506 10.1061 806.733 11.2727C804.96 12.4394 803.581 14.1515 802.597 16.4091C801.627 18.6667 801.142 21.4394 801.142 24.7273C801.142 28.0152 801.627 30.7879 802.597 33.0455C803.581 35.303 804.96 37.0152 806.733 38.1818C808.506 39.3485 810.581 39.9318 812.96 39.9318C815.339 39.9318 817.415 39.3485 819.188 38.1818C820.96 37.0152 822.331 35.303 823.301 33.0455C824.286 30.7879 824.778 28.0152 824.778 24.7273ZM880.977 1.45454V48H872.477L852.227 18.7045H851.886V48H842.045V1.45454H850.682L870.773 30.7273H871.182V1.45454H880.977ZM914.358 14.8409C914.176 13.0076 913.396 11.5833 912.017 10.5682C910.638 9.55303 908.767 9.04545 906.403 9.04545C904.797 9.04545 903.441 9.27273 902.335 9.72727C901.229 10.1667 900.381 10.7803 899.79 11.5682C899.214 12.3561 898.926 13.25 898.926 14.25C898.896 15.0833 899.07 15.8106 899.449 16.4318C899.843 17.053 900.381 17.5909 901.062 18.0455C901.744 18.4848 902.532 18.8712 903.426 19.2045C904.32 19.5227 905.275 19.7955 906.29 20.0227L910.472 21.0227C912.502 21.4773 914.366 22.0833 916.062 22.8409C917.759 23.5985 919.229 24.5303 920.472 25.6364C921.714 26.7424 922.676 28.0455 923.358 29.5455C924.055 31.0455 924.411 32.7652 924.426 34.7045C924.411 37.553 923.684 40.0227 922.244 42.1136C920.82 44.1894 918.759 45.803 916.062 46.9545C913.381 48.0909 910.146 48.6591 906.358 48.6591C902.6 48.6591 899.328 48.0833 896.54 46.9318C893.767 45.7803 891.6 44.0758 890.04 41.8182C888.494 39.5455 887.684 36.7348 887.608 33.3864H897.131C897.237 34.947 897.684 36.25 898.472 37.2955C899.275 38.3258 900.343 39.1061 901.676 39.6364C903.025 40.1515 904.547 40.4091 906.244 40.4091C907.911 40.4091 909.358 40.1667 910.585 39.6818C911.828 39.197 912.79 38.5227 913.472 37.6591C914.153 36.7955 914.494 35.803 914.494 34.6818C914.494 33.6364 914.184 32.7576 913.562 32.0455C912.956 31.3333 912.063 30.7273 910.881 30.2273C909.714 29.7273 908.282 29.2727 906.585 28.8636L901.517 27.5909C897.593 26.6364 894.494 25.1439 892.222 23.1136C889.949 21.0833 888.82 18.3485 888.835 14.9091C888.82 12.0909 889.57 9.62879 891.085 7.52273C892.616 5.41667 894.714 3.77273 897.381 2.59091C900.047 1.40909 903.078 0.81818 906.472 0.81818C909.926 0.81818 912.941 1.40909 915.517 2.59091C918.108 3.77273 920.123 5.41667 921.562 7.52273C923.002 9.62879 923.744 12.0682 923.79 14.8409H914.358ZM931.045 48V1.45454H940.886V20.6591H960.864V1.45454H970.682V48H960.864V28.7727H940.886V48H931.045ZM988.636 1.45454V48H978.795V1.45454H988.636ZM996.733 48V1.45454H1015.1C1018.63 1.45454 1021.63 2.12879 1024.12 3.47727C1026.6 4.81061 1028.5 6.66667 1029.8 9.04545C1031.12 11.4091 1031.78 14.1364 1031.78 17.2273C1031.78 20.3182 1031.11 23.0455 1029.78 25.4091C1028.45 27.7727 1026.51 29.6136 1023.98 30.9318C1021.47 32.25 1018.42 32.9091 1014.85 32.9091H1003.14V25.0227H1013.26C1015.15 25.0227 1016.71 24.697 1017.94 24.0455C1019.18 23.3788 1020.1 22.4621 1020.71 21.2955C1021.33 20.1136 1021.64 18.7576 1021.64 17.2273C1021.64 15.6818 1021.33 14.3333 1020.71 13.1818C1020.1 12.0151 1019.18 11.1136 1017.94 10.4773C1016.7 9.82576 1015.12 9.5 1013.21 9.5H1006.57V48H996.733Z" fill="white"/>
</svg>
