<svg width="765" height="34" viewBox="0 0 765 34" fill="none" xmlns="http://www.w3.org/2000/svg">
<path d="M0.756392 33V2.45454H12.8075C15.1143 2.45454 17.0831 2.86719 18.7138 3.69247C20.3544 4.50781 21.6023 5.66619 22.4574 7.16761C23.3224 8.65909 23.755 10.4141 23.755 12.4325C23.755 14.4609 23.3175 16.206 22.4425 17.6676C21.5675 19.1193 20.2997 20.233 18.6392 21.0085C16.9886 21.7841 14.9901 22.1719 12.6435 22.1719H4.57457V16.9815H11.5994C12.8324 16.9815 13.8565 16.8125 14.6719 16.4744C15.4872 16.1364 16.0938 15.6293 16.4915 14.9531C16.8991 14.277 17.103 13.4368 17.103 12.4325C17.103 11.4183 16.8991 10.5632 16.4915 9.86719C16.0938 9.17116 15.4822 8.64417 14.657 8.28622C13.8416 7.91832 12.8125 7.73438 11.5696 7.73438H7.21449V33H0.756392ZM17.2521 19.0994L24.8438 33H17.7145L10.2869 19.0994H17.2521ZM38.2708 33.4474C35.9142 33.4474 33.8858 32.9702 32.1855 32.0156C30.4952 31.0511 29.1926 29.6889 28.2779 27.929C27.3631 26.1591 26.9057 24.0661 26.9057 21.6499C26.9057 19.2933 27.3631 17.2251 28.2779 15.4453C29.1926 13.6655 30.4803 12.2784 32.1408 11.2841C33.8113 10.2898 35.7701 9.79261 38.0172 9.79261C39.5286 9.79261 40.9355 10.0362 42.2381 10.5234C43.5506 11.0007 44.6941 11.7216 45.6685 12.6861C46.6529 13.6506 47.4185 14.8636 47.9654 16.3253C48.5123 17.777 48.7857 19.4773 48.7857 21.4261V23.1712H29.4412V19.2337H42.8049C42.8049 18.3189 42.606 17.5085 42.2083 16.8026C41.8105 16.0966 41.2587 15.5447 40.5527 15.147C39.8567 14.7393 39.0463 14.5355 38.1216 14.5355C37.1571 14.5355 36.302 14.7592 35.5563 15.2067C34.8205 15.6442 34.2438 16.2358 33.8262 16.9815C33.4086 17.7173 33.1948 18.5376 33.1848 19.4425V23.1861C33.1848 24.3196 33.3936 25.299 33.8113 26.1243C34.2388 26.9496 34.8404 27.5859 35.6159 28.0334C36.3915 28.4808 37.3113 28.7045 38.3752 28.7045C39.0811 28.7045 39.7275 28.6051 40.3141 28.4062C40.9007 28.2074 41.4029 27.9091 41.8205 27.5114C42.2381 27.1136 42.5563 26.6264 42.775 26.0497L48.6515 26.4375C48.3532 27.8494 47.7417 29.0824 46.8169 30.1364C45.9022 31.1804 44.7189 31.9957 43.2672 32.5824C41.8255 33.1591 40.16 33.4474 38.2708 33.4474ZM59.4647 33.4325C58.003 33.4325 56.7005 33.179 55.557 32.6719C54.4135 32.1548 53.5087 31.3942 52.8425 30.3899C52.1863 29.3757 51.8581 28.1129 51.8581 26.6016C51.8581 25.3288 52.0918 24.2599 52.5591 23.3949C53.0265 22.5298 53.6628 21.8338 54.4682 21.3068C55.2736 20.7798 56.1884 20.3821 57.2125 20.1136C58.2466 19.8452 59.3304 19.6562 60.464 19.5469C61.7963 19.4077 62.8702 19.2784 63.6855 19.1591C64.5009 19.0298 65.0925 18.8409 65.4604 18.5923C65.8283 18.3437 66.0123 17.9759 66.0123 17.4886V17.3991C66.0123 16.4545 65.714 15.7237 65.1174 15.2067C64.5307 14.6896 63.6955 14.4311 62.6117 14.4311C61.4682 14.4311 60.5584 14.6847 59.8823 15.1918C59.2061 15.6889 58.7587 16.3153 58.54 17.071L52.6635 16.5938C52.9618 15.2017 53.5485 13.9986 54.4235 12.9844C55.2985 11.9602 56.427 11.1747 57.8091 10.6278C59.2012 10.071 60.812 9.79261 62.6415 9.79261C63.9142 9.79261 65.1323 9.94176 66.2956 10.2401C67.4689 10.5384 68.508 11.0007 69.4128 11.6271C70.3276 12.2536 71.0485 13.0589 71.5755 14.0433C72.1025 15.0178 72.3659 16.1861 72.3659 17.5483V33H66.3404V29.8232H66.1614C65.7935 30.5391 65.3013 31.1705 64.6848 31.7173C64.0684 32.2543 63.3276 32.6768 62.4625 32.9851C61.5975 33.2834 60.5982 33.4325 59.4647 33.4325ZM61.2843 29.0476C62.2189 29.0476 63.0442 28.8636 63.7601 28.4957C64.476 28.1179 65.0378 27.6108 65.4455 26.9744C65.8532 26.3381 66.057 25.6172 66.057 24.8118V22.3807C65.8581 22.5099 65.5847 22.6293 65.2367 22.7386C64.8986 22.8381 64.5158 22.9325 64.0882 23.022C63.6607 23.1016 63.2331 23.1761 62.8056 23.2457C62.378 23.3054 61.9902 23.3601 61.6422 23.4098C60.8965 23.5192 60.2452 23.6932 59.6884 23.9318C59.1316 24.1705 58.699 24.4936 58.3908 24.9013C58.0826 25.299 57.9284 25.7962 57.9284 26.3928C57.9284 27.2578 58.2417 27.919 58.8681 28.3764C59.5044 28.8239 60.3098 29.0476 61.2843 29.0476ZM83.649 2.45454V33H77.2953V2.45454H83.649ZM103.012 17.9361V22.9773H89.0817V17.9361H103.012ZM108.545 33V2.45454H115.004V27.6754H128.099V33H108.545ZM132.256 33V10.0909H138.61V33H132.256ZM135.448 7.13778C134.503 7.13778 133.693 6.82457 133.017 6.19815C132.351 5.56179 132.018 4.80114 132.018 3.91619C132.018 3.04119 132.351 2.29048 133.017 1.66406C133.693 1.0277 134.503 0.709515 135.448 0.709515C136.393 0.709515 137.198 1.0277 137.864 1.66406C138.54 2.29048 138.878 3.04119 138.878 3.91619C138.878 4.80114 138.54 5.56179 137.864 6.19815C137.198 6.82457 136.393 7.13778 135.448 7.13778ZM156.019 10.0909V14.8636H141.88V10.0909H156.019ZM145.116 33V8.43537C145.116 6.77486 145.44 5.39773 146.086 4.30398C146.742 3.21023 147.637 2.38991 148.771 1.84304C149.904 1.29616 151.192 1.02273 152.634 1.02273C153.608 1.02273 154.498 1.0973 155.303 1.24645C156.119 1.3956 156.725 1.52983 157.123 1.64915L155.989 6.42188C155.741 6.34233 155.433 6.26775 155.065 6.19815C154.707 6.12855 154.339 6.09375 153.961 6.09375C153.026 6.09375 152.375 6.3125 152.007 6.75C151.639 7.17756 151.455 7.77912 151.455 8.55469V33H145.116ZM169.521 33.4474C167.164 33.4474 165.136 32.9702 163.436 32.0156C161.745 31.0511 160.443 29.6889 159.528 27.929C158.613 26.1591 158.156 24.0661 158.156 21.6499C158.156 19.2933 158.613 17.2251 159.528 15.4453C160.443 13.6655 161.73 12.2784 163.391 11.2841C165.061 10.2898 167.02 9.79261 169.267 9.79261C170.779 9.79261 172.186 10.0362 173.488 10.5234C174.801 11.0007 175.944 11.7216 176.919 12.6861C177.903 13.6506 178.669 14.8636 179.215 16.3253C179.762 17.777 180.036 19.4773 180.036 21.4261V23.1712H160.691V19.2337H174.055C174.055 18.3189 173.856 17.5085 173.458 16.8026C173.061 16.0966 172.509 15.5447 171.803 15.147C171.107 14.7393 170.296 14.5355 169.372 14.5355C168.407 14.5355 167.552 14.7592 166.806 15.2067C166.07 15.6442 165.494 16.2358 165.076 16.9815C164.659 17.7173 164.445 18.5376 164.435 19.4425V23.1861C164.435 24.3196 164.644 25.299 165.061 26.1243C165.489 26.9496 166.09 27.5859 166.866 28.0334C167.642 28.4808 168.561 28.7045 169.625 28.7045C170.331 28.7045 170.977 28.6051 171.564 28.4062C172.151 28.2074 172.653 27.9091 173.07 27.5114C173.488 27.1136 173.806 26.6264 174.025 26.0497L179.901 26.4375C179.603 27.8494 178.992 29.0824 178.067 30.1364C177.152 31.1804 175.969 31.9957 174.517 32.5824C173.075 33.1591 171.41 33.4474 169.521 33.4474ZM220.973 13.1484H214.44C214.321 12.3033 214.077 11.5526 213.71 10.8963C213.342 10.2301 212.869 9.66335 212.293 9.19602C211.716 8.72869 211.05 8.37074 210.294 8.12216C209.548 7.87358 208.738 7.74929 207.863 7.74929C206.282 7.74929 204.905 8.14205 203.732 8.92756C202.558 9.70312 201.648 10.8366 201.002 12.3281C200.356 13.8097 200.033 15.6094 200.033 17.7273C200.033 19.9048 200.356 21.7344 201.002 23.2159C201.658 24.6974 202.573 25.8161 203.746 26.5717C204.92 27.3274 206.277 27.7053 207.818 27.7053C208.683 27.7053 209.484 27.5909 210.219 27.3622C210.965 27.1335 211.626 26.8004 212.203 26.3629C212.78 25.9155 213.257 25.3736 213.635 24.7372C214.023 24.1009 214.291 23.375 214.44 22.5597L220.973 22.5895C220.804 23.9915 220.381 25.3438 219.705 26.6463C219.039 27.9389 218.139 29.0973 217.006 30.1214C215.882 31.1357 214.54 31.9411 212.979 32.5376C211.428 33.1243 209.673 33.4176 207.714 33.4176C204.989 33.4176 202.553 32.8011 200.406 31.5682C198.268 30.3352 196.577 28.5504 195.335 26.2138C194.102 23.8771 193.485 21.0483 193.485 17.7273C193.485 14.3963 194.112 11.5625 195.364 9.22585C196.617 6.8892 198.317 5.10937 200.465 3.88636C202.613 2.65341 205.029 2.03693 207.714 2.03693C209.484 2.03693 211.124 2.28551 212.636 2.78267C214.157 3.27983 215.504 4.00568 216.678 4.96023C217.851 5.90483 218.805 7.06321 219.541 8.43537C220.287 9.80753 220.764 11.3786 220.973 13.1484ZM235.836 33.4474C233.519 33.4474 231.515 32.9553 229.825 31.9709C228.145 30.9766 226.847 29.5945 225.932 27.8246C225.017 26.0447 224.56 23.9815 224.56 21.6349C224.56 19.2685 225.017 17.2003 225.932 15.4304C226.847 13.6506 228.145 12.2685 229.825 11.2841C231.515 10.2898 233.519 9.79261 235.836 9.79261C238.152 9.79261 240.151 10.2898 241.831 11.2841C243.522 12.2685 244.824 13.6506 245.739 15.4304C246.654 17.2003 247.111 19.2685 247.111 21.6349C247.111 23.9815 246.654 26.0447 245.739 27.8246C244.824 29.5945 243.522 30.9766 241.831 31.9709C240.151 32.9553 238.152 33.4474 235.836 33.4474ZM235.865 28.5256C236.919 28.5256 237.799 28.2273 238.505 27.6307C239.211 27.0241 239.743 26.1989 240.101 25.1548C240.469 24.1108 240.653 22.9226 240.653 21.5902C240.653 20.2578 240.469 19.0696 240.101 18.0256C239.743 16.9815 239.211 16.1562 238.505 15.5497C237.799 14.9432 236.919 14.6399 235.865 14.6399C234.801 14.6399 233.907 14.9432 233.181 15.5497C232.465 16.1562 231.923 16.9815 231.555 18.0256C231.197 19.0696 231.018 20.2578 231.018 21.5902C231.018 22.9226 231.197 24.1108 231.555 25.1548C231.923 26.1989 232.465 27.0241 233.181 27.6307C233.907 28.2273 234.801 28.5256 235.865 28.5256ZM251.243 33V10.0909H257.298V14.1328H257.566C258.044 12.7905 258.839 11.7315 259.953 10.956C261.066 10.1804 262.399 9.79261 263.95 9.79261C265.521 9.79261 266.858 10.1854 267.962 10.9709C269.066 11.7464 269.801 12.8004 270.169 14.1328H270.408C270.875 12.8203 271.721 11.7713 272.944 10.9858C274.176 10.1903 275.633 9.79261 277.314 9.79261C279.451 9.79261 281.186 10.4737 282.519 11.8359C283.861 13.1882 284.532 15.1072 284.532 17.593V33H278.194V18.8459C278.194 17.5732 277.855 16.6186 277.179 15.9822C276.503 15.3459 275.658 15.0277 274.644 15.0277C273.49 15.0277 272.591 15.3956 271.944 16.1314C271.298 16.8572 270.975 17.8168 270.975 19.0099V33H264.815V18.7116C264.815 17.5881 264.492 16.6932 263.846 16.027C263.209 15.3608 262.369 15.0277 261.325 15.0277C260.619 15.0277 259.983 15.2067 259.416 15.5646C258.859 15.9126 258.417 16.4048 258.088 17.0412C257.76 17.6676 257.596 18.4034 257.596 19.2486V33H251.243ZM289.67 33V2.45454H296.024V13.9389H296.218C296.496 13.3224 296.899 12.696 297.426 12.0597C297.963 11.4134 298.659 10.8764 299.514 10.4489C300.379 10.0114 301.453 9.79261 302.736 9.79261C304.406 9.79261 305.947 10.2301 307.359 11.1051C308.771 11.9702 309.9 13.2777 310.745 15.0277C311.59 16.7678 312.013 18.9503 312.013 21.5753C312.013 24.1307 311.6 26.2884 310.775 28.0483C309.96 29.7983 308.846 31.1257 307.434 32.0305C306.032 32.9254 304.461 33.3729 302.721 33.3729C301.488 33.3729 300.439 33.169 299.574 32.7614C298.719 32.3537 298.018 31.8416 297.471 31.2251C296.924 30.5987 296.506 29.9673 296.218 29.331H295.935V33H289.67ZM295.89 21.5455C295.89 22.9077 296.079 24.0959 296.457 25.1101C296.835 26.1243 297.381 26.9148 298.097 27.4815C298.813 28.0384 299.683 28.3168 300.707 28.3168C301.741 28.3168 302.616 28.0334 303.332 27.4666C304.048 26.8899 304.59 26.0945 304.958 25.0803C305.336 24.0561 305.525 22.8778 305.525 21.5455C305.525 20.223 305.341 19.0597 304.973 18.0554C304.605 17.0511 304.063 16.2656 303.347 15.6989C302.631 15.1321 301.751 14.8487 300.707 14.8487C299.673 14.8487 298.798 15.1222 298.082 15.669C297.376 16.2159 296.835 16.9915 296.457 17.9957C296.079 19 295.89 20.1832 295.89 21.5455ZM322.785 33.4325C321.323 33.4325 320.021 33.179 318.877 32.6719C317.734 32.1548 316.829 31.3942 316.163 30.3899C315.507 29.3757 315.178 28.1129 315.178 26.6016C315.178 25.3288 315.412 24.2599 315.879 23.3949C316.347 22.5298 316.983 21.8338 317.789 21.3068C318.594 20.7798 319.509 20.3821 320.533 20.1136C321.567 19.8452 322.651 19.6562 323.784 19.5469C325.117 19.4077 326.191 19.2784 327.006 19.1591C327.821 19.0298 328.413 18.8409 328.781 18.5923C329.149 18.3437 329.333 17.9759 329.333 17.4886V17.3991C329.333 16.4545 329.034 15.7237 328.438 15.2067C327.851 14.6896 327.016 14.4311 325.932 14.4311C324.789 14.4311 323.879 14.6847 323.203 15.1918C322.526 15.6889 322.079 16.3153 321.86 17.071L315.984 16.5938C316.282 15.2017 316.869 13.9986 317.744 12.9844C318.619 11.9602 319.747 11.1747 321.129 10.6278C322.521 10.071 324.132 9.79261 325.962 9.79261C327.235 9.79261 328.453 9.94176 329.616 10.2401C330.789 10.5384 331.828 11.0007 332.733 11.6271C333.648 12.2536 334.369 13.0589 334.896 14.0433C335.423 15.0178 335.686 16.1861 335.686 17.5483V33H329.661V29.8232H329.482C329.114 30.5391 328.622 31.1705 328.005 31.7173C327.389 32.2543 326.648 32.6768 325.783 32.9851C324.918 33.2834 323.919 33.4325 322.785 33.4325ZM324.605 29.0476C325.539 29.0476 326.365 28.8636 327.08 28.4957C327.796 28.1179 328.358 27.6108 328.766 26.9744C329.173 26.3381 329.377 25.6172 329.377 24.8118V22.3807C329.178 22.5099 328.905 22.6293 328.557 22.7386C328.219 22.8381 327.836 22.9325 327.409 23.022C326.981 23.1016 326.553 23.1761 326.126 23.2457C325.698 23.3054 325.311 23.3601 324.963 23.4098C324.217 23.5192 323.566 23.6932 323.009 23.9318C322.452 24.1705 322.019 24.4936 321.711 24.9013C321.403 25.299 321.249 25.7962 321.249 26.3928C321.249 27.2578 321.562 27.919 322.188 28.3764C322.825 28.8239 323.63 29.0476 324.605 29.0476ZM352.801 10.0909V14.8636H339.005V10.0909H352.801ZM342.137 4.60227H348.491V25.9602C348.491 26.5469 348.58 27.0043 348.759 27.3324C348.938 27.6506 349.187 27.8743 349.505 28.0036C349.833 28.1328 350.211 28.1974 350.638 28.1974C350.937 28.1974 351.235 28.1726 351.533 28.1229C351.831 28.0632 352.06 28.0185 352.219 27.9886L353.219 32.7166C352.9 32.8161 352.453 32.9304 351.876 33.0597C351.3 33.1989 350.599 33.2834 349.773 33.3132C348.242 33.3729 346.9 33.169 345.746 32.7017C344.603 32.2344 343.713 31.5085 343.077 30.5241C342.44 29.5398 342.127 28.2969 342.137 26.7955V4.60227ZM360.654 33.3878C359.669 33.3878 358.824 33.0398 358.118 32.3438C357.422 31.6378 357.074 30.7926 357.074 29.8082C357.074 28.8338 357.422 27.9986 358.118 27.3026C358.824 26.6065 359.669 26.2585 360.654 26.2585C361.608 26.2585 362.443 26.6065 363.159 27.3026C363.875 27.9986 364.233 28.8338 364.233 29.8082C364.233 30.4645 364.064 31.0661 363.726 31.6129C363.398 32.1499 362.965 32.5824 362.428 32.9105C361.892 33.2287 361.3 33.3878 360.654 33.3878ZM377.854 33V2.45454H389.905C392.212 2.45454 394.181 2.86719 395.811 3.69247C397.452 4.50781 398.7 5.66619 399.555 7.16761C400.42 8.65909 400.853 10.4141 400.853 12.4325C400.853 14.4609 400.415 16.206 399.54 17.6676C398.665 19.1193 397.397 20.233 395.737 21.0085C394.086 21.7841 392.088 22.1719 389.741 22.1719H381.672V16.9815H388.697C389.93 16.9815 390.954 16.8125 391.77 16.4744C392.585 16.1364 393.191 15.6293 393.589 14.9531C393.997 14.277 394.201 13.4368 394.201 12.4325C394.201 11.4183 393.997 10.5632 393.589 9.86719C393.191 9.17116 392.58 8.64417 391.755 8.28622C390.939 7.91832 389.91 7.73438 388.667 7.73438H384.312V33H377.854ZM394.35 19.0994L401.941 33H394.812L387.385 19.0994H394.35ZM415.368 33.4474C413.012 33.4474 410.983 32.9702 409.283 32.0156C407.593 31.0511 406.29 29.6889 405.376 27.929C404.461 26.1591 404.003 24.0661 404.003 21.6499C404.003 19.2933 404.461 17.2251 405.376 15.4453C406.29 13.6655 407.578 12.2784 409.238 11.2841C410.909 10.2898 412.868 9.79261 415.115 9.79261C416.626 9.79261 418.033 10.0362 419.336 10.5234C420.648 11.0007 421.792 11.7216 422.766 12.6861C423.751 13.6506 424.516 14.8636 425.063 16.3253C425.61 17.777 425.883 19.4773 425.883 21.4261V23.1712H406.539V19.2337H419.903C419.903 18.3189 419.704 17.5085 419.306 16.8026C418.908 16.0966 418.356 15.5447 417.65 15.147C416.954 14.7393 416.144 14.5355 415.219 14.5355C414.255 14.5355 413.4 14.7592 412.654 15.2067C411.918 15.6442 411.341 16.2358 410.924 16.9815C410.506 17.7173 410.292 18.5376 410.282 19.4425V23.1861C410.282 24.3196 410.491 25.299 410.909 26.1243C411.336 26.9496 411.938 27.5859 412.714 28.0334C413.489 28.4808 414.409 28.7045 415.473 28.7045C416.179 28.7045 416.825 28.6051 417.412 28.4062C417.998 28.2074 418.501 27.9091 418.918 27.5114C419.336 27.1136 419.654 26.6264 419.873 26.0497L425.749 26.4375C425.451 27.8494 424.839 29.0824 423.915 30.1364C423 31.1804 421.817 31.9957 420.365 32.5824C418.923 33.1591 417.258 33.4474 415.368 33.4474ZM436.562 33.4325C435.101 33.4325 433.798 33.179 432.655 32.6719C431.511 32.1548 430.606 31.3942 429.94 30.3899C429.284 29.3757 428.956 28.1129 428.956 26.6016C428.956 25.3288 429.189 24.2599 429.657 23.3949C430.124 22.5298 430.76 21.8338 431.566 21.3068C432.371 20.7798 433.286 20.3821 434.31 20.1136C435.344 19.8452 436.428 19.6562 437.562 19.5469C438.894 19.4077 439.968 19.2784 440.783 19.1591C441.599 19.0298 442.19 18.8409 442.558 18.5923C442.926 18.3437 443.11 17.9759 443.11 17.4886V17.3991C443.11 16.4545 442.812 15.7237 442.215 15.2067C441.628 14.6896 440.793 14.4311 439.709 14.4311C438.566 14.4311 437.656 14.6847 436.98 15.1918C436.304 15.6889 435.856 16.3153 435.638 17.071L429.761 16.5938C430.059 15.2017 430.646 13.9986 431.521 12.9844C432.396 11.9602 433.525 11.1747 434.907 10.6278C436.299 10.071 437.91 9.79261 439.739 9.79261C441.012 9.79261 442.23 9.94176 443.393 10.2401C444.567 10.5384 445.606 11.0007 446.51 11.6271C447.425 12.2536 448.146 13.0589 448.673 14.0433C449.2 15.0178 449.464 16.1861 449.464 17.5483V33H443.438V29.8232H443.259C442.891 30.5391 442.399 31.1705 441.782 31.7173C441.166 32.2543 440.425 32.6768 439.56 32.9851C438.695 33.2834 437.696 33.4325 436.562 33.4325ZM438.382 29.0476C439.317 29.0476 440.142 28.8636 440.858 28.4957C441.574 28.1179 442.135 27.6108 442.543 26.9744C442.951 26.3381 443.155 25.6172 443.155 24.8118V22.3807C442.956 22.5099 442.682 22.6293 442.334 22.7386C441.996 22.8381 441.613 22.9325 441.186 23.022C440.758 23.1016 440.331 23.1761 439.903 23.2457C439.476 23.3054 439.088 23.3601 438.74 23.4098C437.994 23.5192 437.343 23.6932 436.786 23.9318C436.229 24.1705 435.797 24.4936 435.488 24.9013C435.18 25.299 435.026 25.7962 435.026 26.3928C435.026 27.2578 435.339 27.919 435.966 28.3764C436.602 28.8239 437.407 29.0476 438.382 29.0476ZM460.747 2.45454V33H454.393V2.45454H460.747ZM480.11 17.9361V22.9773H466.179V17.9361H480.11ZM491.657 33L482.917 2.45454H489.972L495.028 23.6783H495.282L500.86 2.45454H506.9L512.464 23.723H512.732L517.788 2.45454H524.843L516.103 33H509.809L503.992 13.0291H503.753L497.952 33H491.657ZM536.07 33.4474C533.753 33.4474 531.75 32.9553 530.059 31.9709C528.379 30.9766 527.081 29.5945 526.167 27.8246C525.252 26.0447 524.794 23.9815 524.794 21.6349C524.794 19.2685 525.252 17.2003 526.167 15.4304C527.081 13.6506 528.379 12.2685 530.059 11.2841C531.75 10.2898 533.753 9.79261 536.07 9.79261C538.387 9.79261 540.385 10.2898 542.066 11.2841C543.756 12.2685 545.059 13.6506 545.973 15.4304C546.888 17.2003 547.346 19.2685 547.346 21.6349C547.346 23.9815 546.888 26.0447 545.973 27.8246C545.059 29.5945 543.756 30.9766 542.066 31.9709C540.385 32.9553 538.387 33.4474 536.07 33.4474ZM536.1 28.5256C537.154 28.5256 538.034 28.2273 538.74 27.6307C539.446 27.0241 539.978 26.1989 540.336 25.1548C540.703 24.1108 540.887 22.9226 540.887 21.5902C540.887 20.2578 540.703 19.0696 540.336 18.0256C539.978 16.9815 539.446 16.1562 538.74 15.5497C538.034 14.9432 537.154 14.6399 536.1 14.6399C535.036 14.6399 534.141 14.9432 533.415 15.5497C532.699 16.1562 532.157 16.9815 531.789 18.0256C531.431 19.0696 531.252 20.2578 531.252 21.5902C531.252 22.9226 531.431 24.1108 531.789 25.1548C532.157 26.1989 532.699 27.0241 533.415 27.6307C534.141 28.2273 535.036 28.5256 536.1 28.5256ZM551.477 33V10.0909H557.637V14.0881H557.875C558.293 12.6662 558.994 11.5923 559.978 10.8665C560.963 10.1307 562.096 9.76278 563.379 9.76278C563.697 9.76278 564.04 9.78267 564.408 9.82244C564.776 9.86222 565.099 9.9169 565.377 9.9865V15.6243C565.079 15.5348 564.667 15.4553 564.14 15.3857C563.613 15.3161 563.13 15.2812 562.693 15.2812C561.758 15.2812 560.923 15.4851 560.187 15.8928C559.461 16.2905 558.885 16.8473 558.457 17.5632C558.039 18.2791 557.831 19.1044 557.831 20.0391V33H551.477ZM575.016 2.45454V33H568.662V2.45454H575.016ZM588.548 33.3729C586.808 33.3729 585.232 32.9254 583.82 32.0305C582.418 31.1257 581.304 29.7983 580.479 28.0483C579.663 26.2884 579.256 24.1307 579.256 21.5753C579.256 18.9503 579.678 16.7678 580.523 15.0277C581.369 13.2777 582.492 11.9702 583.894 11.1051C585.306 10.2301 586.852 9.79261 588.533 9.79261C589.815 9.79261 590.884 10.0114 591.739 10.4489C592.604 10.8764 593.3 11.4134 593.827 12.0597C594.364 12.696 594.772 13.3224 595.05 13.9389H595.244V2.45454H601.583V33H595.319V29.331H595.05C594.752 29.9673 594.33 30.5987 593.783 31.2251C593.246 31.8416 592.545 32.3537 591.68 32.7614C590.825 33.169 589.781 33.3729 588.548 33.3729ZM590.561 28.3168C591.585 28.3168 592.45 28.0384 593.156 27.4815C593.872 26.9148 594.419 26.1243 594.797 25.1101C595.185 24.0959 595.379 22.9077 595.379 21.5455C595.379 20.1832 595.19 19 594.812 17.9957C594.434 16.9915 593.887 16.2159 593.171 15.669C592.455 15.1222 591.585 14.8487 590.561 14.8487C589.517 14.8487 588.637 15.1321 587.921 15.6989C587.205 16.2656 586.663 17.0511 586.295 18.0554C585.928 19.0597 585.744 20.223 585.744 21.5455C585.744 22.8778 585.928 24.0561 586.295 25.0803C586.673 26.0945 587.215 26.8899 587.921 27.4666C588.637 28.0334 589.517 28.3168 590.561 28.3168ZM633.217 11.2393C633.098 10.0362 632.586 9.10156 631.681 8.43537C630.776 7.76917 629.548 7.43608 627.997 7.43608C626.943 7.43608 626.053 7.58523 625.327 7.88352C624.602 8.17188 624.045 8.57457 623.657 9.09162C623.279 9.60866 623.09 10.1953 623.09 10.8516C623.07 11.3984 623.185 11.8757 623.433 12.2834C623.692 12.6911 624.045 13.044 624.492 13.3423C624.94 13.6307 625.457 13.8842 626.043 14.103C626.63 14.3118 627.256 14.4908 627.923 14.6399L630.667 15.2962C631.999 15.5945 633.222 15.9922 634.336 16.4893C635.45 16.9865 636.414 17.598 637.229 18.3239C638.045 19.0497 638.676 19.9048 639.124 20.8892C639.581 21.8736 639.815 23.0021 639.825 24.2749C639.815 26.1442 639.337 27.7649 638.393 29.1371C637.458 30.4993 636.106 31.5582 634.336 32.3139C632.576 33.0597 630.453 33.4325 627.967 33.4325C625.501 33.4325 623.354 33.0547 621.524 32.299C619.705 31.5433 618.283 30.4247 617.259 28.9432C616.244 27.4517 615.712 25.6072 615.663 23.4098H621.912C621.982 24.4339 622.275 25.2891 622.792 25.9751C623.319 26.6513 624.02 27.1634 624.895 27.5114C625.78 27.8494 626.779 28.0185 627.893 28.0185C628.987 28.0185 629.936 27.8594 630.741 27.5412C631.557 27.223 632.188 26.7805 632.636 26.2138C633.083 25.647 633.307 24.9957 633.307 24.2599C633.307 23.5739 633.103 22.9972 632.695 22.5298C632.298 22.0625 631.711 21.6648 630.935 21.3366C630.17 21.0085 629.23 20.7102 628.116 20.4418L624.79 19.6065C622.215 18.9801 620.182 18.0007 618.69 16.6683C617.199 15.3359 616.458 13.5412 616.468 11.2841C616.458 9.43466 616.95 7.81889 617.945 6.43679C618.949 5.05469 620.326 3.97585 622.076 3.20028C623.826 2.42471 625.815 2.03693 628.042 2.03693C630.309 2.03693 632.288 2.42471 633.978 3.20028C635.678 3.97585 637.001 5.05469 637.945 6.43679C638.89 7.81889 639.377 9.41974 639.407 11.2393H633.217ZM656.235 10.0909V14.8636H642.438V10.0909H656.235ZM645.57 4.60227H651.924V25.9602C651.924 26.5469 652.014 27.0043 652.193 27.3324C652.372 27.6506 652.62 27.8743 652.938 28.0036C653.267 28.1328 653.644 28.1974 654.072 28.1974C654.37 28.1974 654.669 28.1726 654.967 28.1229C655.265 28.0632 655.494 28.0185 655.653 27.9886L656.652 32.7166C656.334 32.8161 655.887 32.9304 655.31 33.0597C654.733 33.1989 654.032 33.2834 653.207 33.3132C651.676 33.3729 650.333 33.169 649.18 32.7017C648.036 32.2344 647.146 31.5085 646.51 30.5241C645.874 29.5398 645.561 28.2969 645.57 26.7955V4.60227ZM666.906 33.4325C665.444 33.4325 664.142 33.179 662.998 32.6719C661.855 32.1548 660.95 31.3942 660.284 30.3899C659.628 29.3757 659.3 28.1129 659.3 26.6016C659.3 25.3288 659.533 24.2599 660.001 23.3949C660.468 22.5298 661.104 21.8338 661.91 21.3068C662.715 20.7798 663.63 20.3821 664.654 20.1136C665.688 19.8452 666.772 19.6562 667.905 19.5469C669.238 19.4077 670.312 19.2784 671.127 19.1591C671.942 19.0298 672.534 18.8409 672.902 18.5923C673.27 18.3437 673.454 17.9759 673.454 17.4886V17.3991C673.454 16.4545 673.155 15.7237 672.559 15.2067C671.972 14.6896 671.137 14.4311 670.053 14.4311C668.91 14.4311 668 14.6847 667.324 15.1918C666.648 15.6889 666.2 16.3153 665.981 17.071L660.105 16.5938C660.403 15.2017 660.99 13.9986 661.865 12.9844C662.74 11.9602 663.868 11.1747 665.251 10.6278C666.643 10.071 668.253 9.79261 670.083 9.79261C671.356 9.79261 672.574 9.94176 673.737 10.2401C674.91 10.5384 675.949 11.0007 676.854 11.6271C677.769 12.2536 678.49 13.0589 679.017 14.0433C679.544 15.0178 679.807 16.1861 679.807 17.5483V33H673.782V29.8232H673.603C673.235 30.5391 672.743 31.1705 672.126 31.7173C671.51 32.2543 670.769 32.6768 669.904 32.9851C669.039 33.2834 668.04 33.4325 666.906 33.4325ZM668.726 29.0476C669.66 29.0476 670.486 28.8636 671.202 28.4957C671.917 28.1179 672.479 27.6108 672.887 26.9744C673.295 26.3381 673.498 25.6172 673.498 24.8118V22.3807C673.3 22.5099 673.026 22.6293 672.678 22.7386C672.34 22.8381 671.957 22.9325 671.53 23.022C671.102 23.1016 670.675 23.1761 670.247 23.2457C669.819 23.3054 669.432 23.3601 669.084 23.4098C668.338 23.5192 667.687 23.6932 667.13 23.9318C666.573 24.1705 666.14 24.4936 665.832 24.9013C665.524 25.299 665.37 25.7962 665.37 26.3928C665.37 27.2578 665.683 27.919 666.309 28.3764C666.946 28.8239 667.751 29.0476 668.726 29.0476ZM690.494 26.4077L690.509 18.7862H691.433L698.771 10.0909H706.065L696.206 21.6051H694.7L690.494 26.4077ZM684.737 33V2.45454H691.09V33H684.737ZM699.055 33L692.313 23.022L696.549 18.5327L706.497 33H699.055ZM718.679 33.4474C716.322 33.4474 714.294 32.9702 712.594 32.0156C710.903 31.0511 709.601 29.6889 708.686 27.929C707.771 26.1591 707.314 24.0661 707.314 21.6499C707.314 19.2933 707.771 17.2251 708.686 15.4453C709.601 13.6655 710.888 12.2784 712.549 11.2841C714.219 10.2898 716.178 9.79261 718.425 9.79261C719.937 9.79261 721.344 10.0362 722.646 10.5234C723.959 11.0007 725.102 11.7216 726.077 12.6861C727.061 13.6506 727.827 14.8636 728.374 16.3253C728.92 17.777 729.194 19.4773 729.194 21.4261V23.1712H709.849V19.2337H723.213C723.213 18.3189 723.014 17.5085 722.616 16.8026C722.219 16.0966 721.667 15.5447 720.961 15.147C720.265 14.7393 719.455 14.5355 718.53 14.5355C717.565 14.5355 716.71 14.7592 715.964 15.2067C715.229 15.6442 714.652 16.2358 714.234 16.9815C713.817 17.7173 713.603 18.5376 713.593 19.4425V23.1861C713.593 24.3196 713.802 25.299 714.219 26.1243C714.647 26.9496 715.249 27.5859 716.024 28.0334C716.8 28.4808 717.719 28.7045 718.783 28.7045C719.489 28.7045 720.136 28.6051 720.722 28.4062C721.309 28.2074 721.811 27.9091 722.229 27.5114C722.646 27.1136 722.964 26.6264 723.183 26.0497L729.06 26.4375C728.761 27.8494 728.15 29.0824 727.225 30.1364C726.31 31.1804 725.127 31.9957 723.675 32.5824C722.234 33.1591 720.568 33.4474 718.679 33.4474ZM752.401 16.6236L746.585 16.9815C746.485 16.4844 746.271 16.0369 745.943 15.6392C745.615 15.2315 745.183 14.9084 744.646 14.6697C744.119 14.4212 743.487 14.2969 742.751 14.2969C741.767 14.2969 740.937 14.5057 740.261 14.9233C739.585 15.331 739.246 15.8778 739.246 16.5639C739.246 17.1108 739.465 17.5732 739.903 17.951C740.34 18.3288 741.091 18.6321 742.155 18.8608L746.301 19.696C748.528 20.1534 750.189 20.8892 751.283 21.9034C752.376 22.9176 752.923 24.25 752.923 25.9006C752.923 27.402 752.481 28.7195 751.596 29.853C750.721 30.9865 749.518 31.8714 747.987 32.5078C746.465 33.1342 744.71 33.4474 742.722 33.4474C739.689 33.4474 737.273 32.8161 735.473 31.5533C733.683 30.2805 732.634 28.5504 732.326 26.3629L738.575 26.0348C738.764 26.9595 739.222 27.6655 739.947 28.1527C740.673 28.63 741.603 28.8686 742.737 28.8686C743.85 28.8686 744.745 28.6548 745.421 28.2273C746.107 27.7898 746.455 27.228 746.465 26.5419C746.455 25.9652 746.212 25.4929 745.734 25.125C745.257 24.7472 744.521 24.4588 743.527 24.2599L739.56 23.4695C737.322 23.022 735.657 22.2464 734.563 21.1428C733.479 20.0391 732.938 18.6321 732.938 16.9219C732.938 15.4503 733.335 14.1825 734.131 13.1186C734.936 12.0547 736.065 11.2344 737.516 10.6577C738.978 10.081 740.688 9.79261 742.647 9.79261C745.54 9.79261 747.817 10.4041 749.478 11.6271C751.148 12.8501 752.123 14.5156 752.401 16.6236ZM760.638 33.3878C759.654 33.3878 758.808 33.0398 758.102 32.3438C757.406 31.6378 757.058 30.7926 757.058 29.8082C757.058 28.8338 757.406 27.9986 758.102 27.3026C758.808 26.6065 759.654 26.2585 760.638 26.2585C761.593 26.2585 762.428 26.6065 763.144 27.3026C763.86 27.9986 764.218 28.8338 764.218 29.8082C764.218 30.4645 764.048 31.0661 763.71 31.6129C763.382 32.1499 762.95 32.5824 762.413 32.9105C761.876 33.2287 761.284 33.3878 760.638 33.3878Z" fill="white"/>
</svg>
